<mxfile host="www.draw.io" modified="2019-11-19T07:59:06.293Z" agent="Mozilla/5.0 (Windows NT 10.0; Win64; x64) AppleWebKit/537.36 (KHTML, like Gecko) Chrome/78.0.3904.108 Safari/537.36" etag="eXPKWPSmL7IemA3ni_QL" version="12.2.6" type="github" pages="4">
  <diagram id="oMSkakIWvGwZ2fosMGut" name="攻击验证">
    <mxGraphModel dx="1024" dy="534" grid="1" gridSize="10" guides="1" tooltips="1" connect="1" arrows="1" fold="1" page="1" pageScale="1" pageWidth="827" pageHeight="1169" math="0" shadow="0">
      <root>
        <mxCell id="0"/>
        <mxCell id="1" parent="0"/>
        <mxCell id="Iz9GkqVSgXcWEBfUTFil-1" value="" style="html=1;shadow=0;dashed=0;shape=mxgraph.bootstrap.rrect;align=center;rSize=5;strokeColor=#00994D;fontColor=#f0f0f0;spacingTop=30;whiteSpace=wrap;fillColor=none;strokeWidth=3;" parent="1" vertex="1">
          <mxGeometry x="20" y="280" width="760" height="90" as="geometry"/>
        </mxCell>
        <mxCell id="Iz9GkqVSgXcWEBfUTFil-2" value="系统展示层" style="html=1;shadow=0;dashed=0;shape=mxgraph.bootstrap.topButton;rSize=5;strokeColor=none;fillColor=none;fontColor=#000000;fontSize=18;fontStyle=1;align=left;spacingLeft=10;whiteSpace=wrap;resizeWidth=1;" parent="Iz9GkqVSgXcWEBfUTFil-1" vertex="1">
          <mxGeometry width="760.0000000000001" height="30" relative="1" as="geometry"/>
        </mxCell>
        <mxCell id="Iz9GkqVSgXcWEBfUTFil-3" value="检测效果展示组件" style="html=1;shadow=0;dashed=0;shape=mxgraph.bootstrap.rrect;align=center;rSize=5;strokeColor=none;fillColor=#499948;fontColor=#ffffff;fontStyle=1;whiteSpace=wrap;fontSize=16;fontFamily=楷体;" parent="Iz9GkqVSgXcWEBfUTFil-1" vertex="1">
          <mxGeometry x="40" y="44.72727272727273" width="140" height="36" as="geometry"/>
        </mxCell>
        <mxCell id="Iz9GkqVSgXcWEBfUTFil-4" value="攻击效果展示组件" style="html=1;shadow=0;dashed=0;shape=mxgraph.bootstrap.rrect;align=center;rSize=5;strokeColor=none;fillColor=#499948;fontColor=#ffffff;fontStyle=1;whiteSpace=wrap;fontSize=16;fontFamily=楷体;" parent="Iz9GkqVSgXcWEBfUTFil-1" vertex="1">
          <mxGeometry x="221" y="44.72727272727273" width="140" height="36" as="geometry"/>
        </mxCell>
        <mxCell id="Iz9GkqVSgXcWEBfUTFil-5" value="统计图展示组件" style="html=1;shadow=0;dashed=0;shape=mxgraph.bootstrap.rrect;align=center;rSize=5;strokeColor=none;fillColor=#499948;fontColor=#ffffff;fontStyle=1;whiteSpace=wrap;fontSize=16;fontFamily=楷体;" parent="Iz9GkqVSgXcWEBfUTFil-1" vertex="1">
          <mxGeometry x="403" y="44.72727272727273" width="140" height="36" as="geometry"/>
        </mxCell>
        <mxCell id="Iz9GkqVSgXcWEBfUTFil-6" value="查询表格展示组件" style="html=1;shadow=0;dashed=0;shape=mxgraph.bootstrap.rrect;align=center;rSize=5;strokeColor=none;fillColor=#499948;fontColor=#ffffff;fontStyle=1;whiteSpace=wrap;fontSize=16;fontFamily=楷体;" parent="Iz9GkqVSgXcWEBfUTFil-1" vertex="1">
          <mxGeometry x="584" y="44.72727272727275" width="140" height="36" as="geometry"/>
        </mxCell>
        <mxCell id="Iz9GkqVSgXcWEBfUTFil-7" value="" style="html=1;shadow=0;dashed=0;shape=mxgraph.bootstrap.rrect;align=center;rSize=5;strokeColor=#0D5B9D;fontColor=#f0f0f0;spacingTop=30;whiteSpace=wrap;fillColor=none;strokeWidth=3;" parent="1" vertex="1">
          <mxGeometry x="20" y="390.5" width="760" height="90" as="geometry"/>
        </mxCell>
        <mxCell id="Iz9GkqVSgXcWEBfUTFil-8" value="核心业务层" style="html=1;shadow=0;dashed=0;shape=mxgraph.bootstrap.topButton;rSize=5;strokeColor=none;fillColor=none;fontColor=#000000;fontSize=18;fontStyle=1;align=left;spacingLeft=10;whiteSpace=wrap;resizeWidth=1;" parent="Iz9GkqVSgXcWEBfUTFil-7" vertex="1">
          <mxGeometry width="760.0000000000001" height="30" relative="1" as="geometry"/>
        </mxCell>
        <mxCell id="Iz9GkqVSgXcWEBfUTFil-11" value="安全检测组件" style="html=1;shadow=0;dashed=0;shape=mxgraph.bootstrap.rrect;align=center;rSize=5;strokeColor=none;fillColor=#0D5B9D;fontColor=#ffffff;fontStyle=1;whiteSpace=wrap;fontSize=16;fontFamily=楷体;" parent="Iz9GkqVSgXcWEBfUTFil-7" vertex="1">
          <mxGeometry x="38" y="40" width="130" height="40" as="geometry"/>
        </mxCell>
        <mxCell id="Iz9GkqVSgXcWEBfUTFil-12" value="配置采集组件" style="html=1;shadow=0;dashed=0;shape=mxgraph.bootstrap.rrect;align=center;rSize=5;strokeColor=none;fillColor=#0D5B9D;fontColor=#ffffff;fontStyle=1;whiteSpace=wrap;fontSize=16;fontFamily=楷体;" parent="Iz9GkqVSgXcWEBfUTFil-7" vertex="1">
          <mxGeometry x="177" y="40" width="130" height="40" as="geometry"/>
        </mxCell>
        <mxCell id="Iz9GkqVSgXcWEBfUTFil-13" value="服务识别组件" style="html=1;shadow=0;dashed=0;shape=mxgraph.bootstrap.rrect;align=center;rSize=5;strokeColor=none;fillColor=#0D5B9D;fontColor=#ffffff;fontStyle=1;whiteSpace=wrap;fontSize=16;fontFamily=楷体;" parent="Iz9GkqVSgXcWEBfUTFil-7" vertex="1">
          <mxGeometry x="316" y="40" width="130" height="40" as="geometry"/>
        </mxCell>
        <mxCell id="Iz9GkqVSgXcWEBfUTFil-14" value="漏洞匹配组件" style="html=1;shadow=0;dashed=0;shape=mxgraph.bootstrap.rrect;align=center;rSize=5;strokeColor=none;fillColor=#0D5B9D;fontColor=#ffffff;fontStyle=1;whiteSpace=wrap;fontSize=16;fontFamily=楷体;" parent="Iz9GkqVSgXcWEBfUTFil-7" vertex="1">
          <mxGeometry x="454" y="40" width="130" height="40" as="geometry"/>
        </mxCell>
        <mxCell id="Iz9GkqVSgXcWEBfUTFil-15" value="数据查询组件" style="html=1;shadow=0;dashed=0;shape=mxgraph.bootstrap.rrect;align=center;rSize=5;strokeColor=none;fillColor=#0D5B9D;fontColor=#ffffff;fontStyle=1;whiteSpace=wrap;fontSize=16;fontFamily=楷体;" parent="Iz9GkqVSgXcWEBfUTFil-7" vertex="1">
          <mxGeometry x="593" y="40" width="130" height="40" as="geometry"/>
        </mxCell>
        <mxCell id="Iz9GkqVSgXcWEBfUTFil-18" value="" style="html=1;shadow=0;dashed=0;shape=mxgraph.bootstrap.rrect;align=center;rSize=5;strokeColor=#7F00FF;fontColor=#f0f0f0;spacingTop=30;whiteSpace=wrap;fillColor=none;strokeWidth=3;" parent="1" vertex="1">
          <mxGeometry x="20" y="500" width="760" height="90" as="geometry"/>
        </mxCell>
        <mxCell id="Iz9GkqVSgXcWEBfUTFil-19" value="数据持久层" style="html=1;shadow=0;dashed=0;shape=mxgraph.bootstrap.topButton;rSize=5;strokeColor=none;fillColor=none;fontColor=#000000;fontSize=18;fontStyle=1;align=left;spacingLeft=10;whiteSpace=wrap;resizeWidth=1;" parent="Iz9GkqVSgXcWEBfUTFil-18" vertex="1">
          <mxGeometry width="760.0000000000001" height="30" relative="1" as="geometry"/>
        </mxCell>
        <mxCell id="Iz9GkqVSgXcWEBfUTFil-20" value="设备特征库组件" style="html=1;shadow=0;dashed=0;shape=mxgraph.bootstrap.rrect;align=center;rSize=5;strokeColor=none;fillColor=#7F00FF;fontColor=#ffffff;fontStyle=1;whiteSpace=wrap;fontSize=16;fontFamily=楷体;" parent="Iz9GkqVSgXcWEBfUTFil-18" vertex="1">
          <mxGeometry x="40" y="40" width="150" height="40" as="geometry"/>
        </mxCell>
        <mxCell id="Iz9GkqVSgXcWEBfUTFil-22" value="系统字典组件" style="html=1;shadow=0;dashed=0;shape=mxgraph.bootstrap.rrect;align=center;rSize=5;strokeColor=none;fillColor=#7F00FF;fontColor=#ffffff;fontStyle=1;whiteSpace=wrap;fontSize=16;fontFamily=楷体;" parent="Iz9GkqVSgXcWEBfUTFil-18" vertex="1">
          <mxGeometry x="230" y="40" width="130" height="40" as="geometry"/>
        </mxCell>
        <mxCell id="Iz9GkqVSgXcWEBfUTFil-23" value="漏洞条目组件" style="html=1;shadow=0;dashed=0;shape=mxgraph.bootstrap.rrect;align=center;rSize=5;strokeColor=none;fillColor=#7F00FF;fontColor=#ffffff;fontStyle=1;whiteSpace=wrap;fontSize=16;fontFamily=楷体;" parent="Iz9GkqVSgXcWEBfUTFil-18" vertex="1">
          <mxGeometry x="410" y="40" width="130" height="40" as="geometry"/>
        </mxCell>
        <mxCell id="Iz9GkqVSgXcWEBfUTFil-24" value="验证环境组件" style="html=1;shadow=0;dashed=0;shape=mxgraph.bootstrap.rrect;align=center;rSize=5;strokeColor=none;fillColor=#7F00FF;fontColor=#ffffff;fontStyle=1;whiteSpace=wrap;fontSize=16;fontFamily=楷体;" parent="Iz9GkqVSgXcWEBfUTFil-18" vertex="1">
          <mxGeometry x="590" y="40" width="130" height="40" as="geometry"/>
        </mxCell>
        <mxCell id="Iz9GkqVSgXcWEBfUTFil-25" value="" style="html=1;shadow=0;dashed=0;shape=mxgraph.bootstrap.rrect;align=center;rSize=5;strokeColor=#FF6666;fontColor=#f0f0f0;spacingTop=30;whiteSpace=wrap;fillColor=none;strokeWidth=3;" parent="1" vertex="1">
          <mxGeometry x="20" y="610" width="760" height="90" as="geometry"/>
        </mxCell>
        <mxCell id="Iz9GkqVSgXcWEBfUTFil-26" value="基础设施层" style="html=1;shadow=0;dashed=0;shape=mxgraph.bootstrap.topButton;rSize=5;strokeColor=none;fillColor=none;fontColor=#000000;fontSize=18;fontStyle=1;align=left;spacingLeft=10;whiteSpace=wrap;resizeWidth=1;" parent="Iz9GkqVSgXcWEBfUTFil-25" vertex="1">
          <mxGeometry width="760.0000000000001" height="30" relative="1" as="geometry"/>
        </mxCell>
        <mxCell id="Iz9GkqVSgXcWEBfUTFil-27" value="发电仿真组件" style="html=1;shadow=0;dashed=0;shape=mxgraph.bootstrap.rrect;align=center;rSize=5;strokeColor=none;fillColor=#FF6666;fontColor=#ffffff;fontStyle=1;whiteSpace=wrap;fontSize=16;fontFamily=楷体;" parent="Iz9GkqVSgXcWEBfUTFil-25" vertex="1">
          <mxGeometry x="40" y="40" width="120" height="40" as="geometry"/>
        </mxCell>
        <mxCell id="Iz9GkqVSgXcWEBfUTFil-28" value="输电仿真组件" style="html=1;shadow=0;dashed=0;shape=mxgraph.bootstrap.rrect;align=center;rSize=5;strokeColor=none;fillColor=#FF6666;fontColor=#ffffff;fontStyle=1;whiteSpace=wrap;fontSize=16;fontFamily=楷体;" parent="Iz9GkqVSgXcWEBfUTFil-25" vertex="1">
          <mxGeometry x="180" y="40" width="120" height="40" as="geometry"/>
        </mxCell>
        <mxCell id="Iz9GkqVSgXcWEBfUTFil-29" value="变电仿真组件" style="html=1;shadow=0;dashed=0;shape=mxgraph.bootstrap.rrect;align=center;rSize=5;strokeColor=none;fillColor=#FF6666;fontColor=#ffffff;fontStyle=1;whiteSpace=wrap;fontSize=16;fontFamily=楷体;" parent="Iz9GkqVSgXcWEBfUTFil-25" vertex="1">
          <mxGeometry x="320" y="40" width="120" height="40" as="geometry"/>
        </mxCell>
        <mxCell id="Iz9GkqVSgXcWEBfUTFil-30" value="配电仿真组件" style="html=1;shadow=0;dashed=0;shape=mxgraph.bootstrap.rrect;align=center;rSize=5;strokeColor=none;fillColor=#FF6666;fontColor=#ffffff;fontStyle=1;whiteSpace=wrap;fontSize=16;fontFamily=楷体;" parent="Iz9GkqVSgXcWEBfUTFil-25" vertex="1">
          <mxGeometry x="460" y="40" width="120" height="40" as="geometry"/>
        </mxCell>
        <mxCell id="Iz9GkqVSgXcWEBfUTFil-31" value="调度仿真组件" style="html=1;shadow=0;dashed=0;shape=mxgraph.bootstrap.rrect;align=center;rSize=5;strokeColor=none;fillColor=#FF6666;fontColor=#ffffff;fontStyle=1;whiteSpace=wrap;fontSize=16;fontFamily=楷体;" parent="Iz9GkqVSgXcWEBfUTFil-25" vertex="1">
          <mxGeometry x="600" y="40" width="120" height="40" as="geometry"/>
        </mxCell>
        <mxCell id="BeISzg79S3oq1utXb7Ol-8" value="" style="endArrow=classic;html=1;fontColor=#000000;strokeColor=#FF0000;strokeWidth=3;dashed=1;dashPattern=1 1;" edge="1" parent="Iz9GkqVSgXcWEBfUTFil-25" source="Iz9GkqVSgXcWEBfUTFil-26">
          <mxGeometry width="50" height="50" relative="1" as="geometry">
            <mxPoint x="575" y="20" as="sourcePoint"/>
            <mxPoint x="625" y="-30" as="targetPoint"/>
          </mxGeometry>
        </mxCell>
        <mxCell id="BeISzg79S3oq1utXb7Ol-4" style="edgeStyle=orthogonalEdgeStyle;rounded=0;orthogonalLoop=1;jettySize=auto;html=1;exitX=0;exitY=0;exitDx=56.4;exitDy=0;exitPerimeter=0;entryX=0.503;entryY=0.085;entryDx=0;entryDy=0;entryPerimeter=0;fontColor=#000000;" edge="1" parent="1">
          <mxGeometry relative="1" as="geometry">
            <mxPoint x="843" y="422" as="sourcePoint"/>
            <mxPoint x="850" y="430" as="targetPoint"/>
          </mxGeometry>
        </mxCell>
        <mxCell id="BeISzg79S3oq1utXb7Ol-9" value="" style="endArrow=classic;html=1;fontColor=#000000;strokeColor=#FF0000;strokeWidth=3;dashed=1;dashPattern=1 1;" edge="1" parent="1" source="Iz9GkqVSgXcWEBfUTFil-26" target="Iz9GkqVSgXcWEBfUTFil-20">
          <mxGeometry width="50" height="50" relative="1" as="geometry">
            <mxPoint x="491.66666666666674" y="620" as="sourcePoint"/>
            <mxPoint x="655" y="590" as="targetPoint"/>
          </mxGeometry>
        </mxCell>
        <mxCell id="BeISzg79S3oq1utXb7Ol-11" value="" style="edgeStyle=segmentEdgeStyle;endArrow=classic;html=1;strokeColor=#FF0000;strokeWidth=3;fontColor=#000000;exitX=0.515;exitY=-0.073;exitDx=0;exitDy=0;exitPerimeter=0;dashed=1;dashPattern=1 1;" edge="1" parent="1" source="Iz9GkqVSgXcWEBfUTFil-26" target="Iz9GkqVSgXcWEBfUTFil-12">
          <mxGeometry width="50" height="50" relative="1" as="geometry">
            <mxPoint x="410" y="560" as="sourcePoint"/>
            <mxPoint x="870" y="510" as="targetPoint"/>
            <Array as="points">
              <mxPoint x="411" y="510"/>
              <mxPoint x="310" y="510"/>
            </Array>
          </mxGeometry>
        </mxCell>
        <mxCell id="BeISzg79S3oq1utXb7Ol-12" value="" style="endArrow=classic;html=1;fontColor=#000000;strokeColor=#FF0000;strokeWidth=3;dashed=1;dashPattern=1 1;" edge="1" parent="1" source="Iz9GkqVSgXcWEBfUTFil-23" target="Iz9GkqVSgXcWEBfUTFil-14">
          <mxGeometry width="50" height="50" relative="1" as="geometry">
            <mxPoint x="491.66666666666674" y="620" as="sourcePoint"/>
            <mxPoint x="655" y="590" as="targetPoint"/>
          </mxGeometry>
        </mxCell>
        <mxCell id="BeISzg79S3oq1utXb7Ol-13" value="" style="endArrow=classic;html=1;fontColor=#000000;strokeColor=#FF0000;strokeWidth=3;dashed=1;dashPattern=1 1;entryX=0.469;entryY=1.013;entryDx=0;entryDy=0;entryPerimeter=0;" edge="1" parent="1" target="Iz9GkqVSgXcWEBfUTFil-15">
          <mxGeometry width="50" height="50" relative="1" as="geometry">
            <mxPoint x="590" y="500" as="sourcePoint"/>
            <mxPoint x="540.9634703196348" y="480.5" as="targetPoint"/>
          </mxGeometry>
        </mxCell>
        <mxCell id="BeISzg79S3oq1utXb7Ol-14" value="" style="endArrow=classic;html=1;fontColor=#000000;strokeColor=#FF0000;strokeWidth=3;dashed=1;dashPattern=1 1;entryX=0.58;entryY=1.041;entryDx=0;entryDy=0;entryPerimeter=0;" edge="1" parent="1" source="Iz9GkqVSgXcWEBfUTFil-15" target="Iz9GkqVSgXcWEBfUTFil-6">
          <mxGeometry width="50" height="50" relative="1" as="geometry">
            <mxPoint x="523.0365296803652" y="560" as="sourcePoint"/>
            <mxPoint x="550.9634703196348" y="490.5" as="targetPoint"/>
          </mxGeometry>
        </mxCell>
        <mxCell id="BeISzg79S3oq1utXb7Ol-15" value="" style="edgeStyle=segmentEdgeStyle;endArrow=classic;html=1;strokeColor=#FF0000;strokeWidth=3;fontColor=#000000;dashed=1;dashPattern=1 1;" edge="1" parent="1" target="Iz9GkqVSgXcWEBfUTFil-11">
          <mxGeometry width="50" height="50" relative="1" as="geometry">
            <mxPoint x="240" y="606" as="sourcePoint"/>
            <mxPoint x="140" y="490" as="targetPoint"/>
            <Array as="points">
              <mxPoint x="240" y="606"/>
              <mxPoint x="240" y="520"/>
              <mxPoint x="140" y="520"/>
            </Array>
          </mxGeometry>
        </mxCell>
        <mxCell id="BeISzg79S3oq1utXb7Ol-17" value="" style="endArrow=classic;html=1;fontColor=#000000;strokeColor=#FF0000;strokeWidth=3;dashed=1;dashPattern=1 1;entryX=0.553;entryY=0.974;entryDx=0;entryDy=0;entryPerimeter=0;exitX=0.186;exitY=-0.028;exitDx=0;exitDy=0;exitPerimeter=0;" edge="1" parent="1" source="Iz9GkqVSgXcWEBfUTFil-15" target="Iz9GkqVSgXcWEBfUTFil-5">
          <mxGeometry width="50" height="50" relative="1" as="geometry">
            <mxPoint x="513.0365296803652" y="550" as="sourcePoint"/>
            <mxPoint x="540.9634703196348" y="480.5" as="targetPoint"/>
          </mxGeometry>
        </mxCell>
        <mxCell id="BeISzg79S3oq1utXb7Ol-18" value="" style="endArrow=classic;html=1;fontColor=#000000;strokeColor=#FF0000;strokeWidth=3;dashed=1;dashPattern=1 1;" edge="1" parent="1" target="Iz9GkqVSgXcWEBfUTFil-4">
          <mxGeometry width="50" height="50" relative="1" as="geometry">
            <mxPoint x="400" y="430" as="sourcePoint"/>
            <mxPoint x="550.9634703196348" y="490.5" as="targetPoint"/>
          </mxGeometry>
        </mxCell>
        <mxCell id="BeISzg79S3oq1utXb7Ol-19" value="" style="endArrow=classic;html=1;fontColor=#000000;strokeColor=#FF0000;strokeWidth=3;dashed=1;dashPattern=1 1;entryX=0.546;entryY=1.019;entryDx=0;entryDy=0;entryPerimeter=0;" edge="1" parent="1" source="Iz9GkqVSgXcWEBfUTFil-11" target="Iz9GkqVSgXcWEBfUTFil-3">
          <mxGeometry width="50" height="50" relative="1" as="geometry">
            <mxPoint x="533.0365296803652" y="570" as="sourcePoint"/>
            <mxPoint x="560.9634703196348" y="500.5" as="targetPoint"/>
          </mxGeometry>
        </mxCell>
        <mxCell id="BeISzg79S3oq1utXb7Ol-20" value="" style="endArrow=classic;html=1;fontColor=#000000;strokeColor=#FF0000;strokeWidth=3;dashed=1;dashPattern=1 1;exitX=0.445;exitY=0.033;exitDx=0;exitDy=0;exitPerimeter=0;" edge="1" parent="1" source="Iz9GkqVSgXcWEBfUTFil-12" target="Iz9GkqVSgXcWEBfUTFil-3">
          <mxGeometry width="50" height="50" relative="1" as="geometry">
            <mxPoint x="543.0365296803652" y="580" as="sourcePoint"/>
            <mxPoint x="570.9634703196348" y="510.5" as="targetPoint"/>
          </mxGeometry>
        </mxCell>
      </root>
    </mxGraphModel>
  </diagram>
  <diagram id="OP2JlEEtq302NK69SK7C" name="固件漏洞">
    <mxGraphModel dx="1024" dy="534" grid="1" gridSize="10" guides="1" tooltips="1" connect="1" arrows="1" fold="1" page="1" pageScale="1" pageWidth="827" pageHeight="1169" math="0" shadow="0">
      <root>
        <mxCell id="QqAQgJ3KjBi81qIqSDTb-0"/>
        <mxCell id="QqAQgJ3KjBi81qIqSDTb-1" parent="QqAQgJ3KjBi81qIqSDTb-0"/>
        <mxCell id="DVevCvVaEX97VUiW8VQT-0" value="" style="html=1;shadow=0;dashed=0;shape=mxgraph.bootstrap.rrect;align=center;rSize=5;strokeColor=#00994D;fontColor=#f0f0f0;spacingTop=30;whiteSpace=wrap;fillColor=none;strokeWidth=3;" parent="QqAQgJ3KjBi81qIqSDTb-1" vertex="1">
          <mxGeometry x="20" y="280" width="760" height="90" as="geometry"/>
        </mxCell>
        <mxCell id="DVevCvVaEX97VUiW8VQT-1" value="系统展示层" style="html=1;shadow=0;dashed=0;shape=mxgraph.bootstrap.topButton;rSize=5;strokeColor=none;fillColor=none;fontColor=#000000;fontSize=18;fontStyle=1;align=left;spacingLeft=10;whiteSpace=wrap;resizeWidth=1;" parent="DVevCvVaEX97VUiW8VQT-0" vertex="1">
          <mxGeometry width="760.0000000000001" height="30" relative="1" as="geometry"/>
        </mxCell>
        <mxCell id="DVevCvVaEX97VUiW8VQT-2" value="固件分析展示组件" style="html=1;shadow=0;dashed=0;shape=mxgraph.bootstrap.rrect;align=center;rSize=5;strokeColor=none;fillColor=#499948;fontColor=#ffffff;fontStyle=1;whiteSpace=wrap;fontSize=16;fontFamily=楷体;flipH=0;" parent="DVevCvVaEX97VUiW8VQT-0" vertex="1">
          <mxGeometry x="40" y="44.72727272727273" width="200" height="36" as="geometry"/>
        </mxCell>
        <mxCell id="DVevCvVaEX97VUiW8VQT-4" value="统计图展示组件" style="html=1;shadow=0;dashed=0;shape=mxgraph.bootstrap.rrect;align=center;rSize=5;strokeColor=none;fillColor=#499948;fontColor=#ffffff;fontStyle=1;whiteSpace=wrap;fontSize=16;fontFamily=楷体;flipH=0;" parent="DVevCvVaEX97VUiW8VQT-0" vertex="1">
          <mxGeometry x="280" y="44.72727272727273" width="200" height="36" as="geometry"/>
        </mxCell>
        <mxCell id="DVevCvVaEX97VUiW8VQT-5" value="查询表格展示组件" style="html=1;shadow=0;dashed=0;shape=mxgraph.bootstrap.rrect;align=center;rSize=5;strokeColor=none;fillColor=#499948;fontColor=#ffffff;fontStyle=1;whiteSpace=wrap;fontSize=16;fontFamily=楷体;flipH=0;" parent="DVevCvVaEX97VUiW8VQT-0" vertex="1">
          <mxGeometry x="520" y="45.22727272727275" width="200" height="36" as="geometry"/>
        </mxCell>
        <mxCell id="DVevCvVaEX97VUiW8VQT-6" value="" style="html=1;shadow=0;dashed=0;shape=mxgraph.bootstrap.rrect;align=center;rSize=5;strokeColor=#3333FF;fontColor=#f0f0f0;spacingTop=30;whiteSpace=wrap;fillColor=none;strokeWidth=3;" parent="QqAQgJ3KjBi81qIqSDTb-1" vertex="1">
          <mxGeometry x="20" y="390.5" width="760" height="90" as="geometry"/>
        </mxCell>
        <mxCell id="DVevCvVaEX97VUiW8VQT-7" value="核心业务层" style="html=1;shadow=0;dashed=0;shape=mxgraph.bootstrap.topButton;rSize=5;strokeColor=none;fillColor=none;fontColor=#000000;fontSize=18;fontStyle=1;align=left;spacingLeft=10;whiteSpace=wrap;resizeWidth=1;" parent="DVevCvVaEX97VUiW8VQT-6" vertex="1">
          <mxGeometry width="760.0000000000001" height="30" relative="1" as="geometry"/>
        </mxCell>
        <mxCell id="DVevCvVaEX97VUiW8VQT-8" value="固件爬取组件" style="html=1;shadow=0;dashed=0;shape=mxgraph.bootstrap.rrect;align=center;rSize=5;strokeColor=none;fillColor=#0D5B9D;fontColor=#ffffff;fontStyle=1;whiteSpace=wrap;fontSize=16;fontFamily=楷体;" parent="DVevCvVaEX97VUiW8VQT-6" vertex="1">
          <mxGeometry x="38" y="40" width="150" height="40" as="geometry"/>
        </mxCell>
        <mxCell id="DVevCvVaEX97VUiW8VQT-9" value="固件解析组件" style="html=1;shadow=0;dashed=0;shape=mxgraph.bootstrap.rrect;align=center;rSize=5;strokeColor=none;fillColor=#0D5B9D;fontColor=#ffffff;fontStyle=1;whiteSpace=wrap;fontSize=16;fontFamily=楷体;" parent="DVevCvVaEX97VUiW8VQT-6" vertex="1">
          <mxGeometry x="215" y="40" width="150" height="40" as="geometry"/>
        </mxCell>
        <mxCell id="DVevCvVaEX97VUiW8VQT-10" value="脆弱性分析组件" style="html=1;shadow=0;dashed=0;shape=mxgraph.bootstrap.rrect;align=center;rSize=5;strokeColor=none;fillColor=#0D5B9D;fontColor=#ffffff;fontStyle=1;whiteSpace=wrap;fontSize=16;fontFamily=楷体;" parent="DVevCvVaEX97VUiW8VQT-6" vertex="1">
          <mxGeometry x="393" y="40" width="150" height="40" as="geometry"/>
        </mxCell>
        <mxCell id="DVevCvVaEX97VUiW8VQT-12" value="数据查询组件" style="html=1;shadow=0;dashed=0;shape=mxgraph.bootstrap.rrect;align=center;rSize=5;strokeColor=none;fillColor=#0D5B9D;fontColor=#ffffff;fontStyle=1;whiteSpace=wrap;fontSize=16;fontFamily=楷体;" parent="DVevCvVaEX97VUiW8VQT-6" vertex="1">
          <mxGeometry x="570" y="40" width="150" height="40" as="geometry"/>
        </mxCell>
        <mxCell id="W5XFSV_c3Iy3PhTVYnS9-0" value="" style="endArrow=classic;html=1;fontColor=#000000;strokeColor=#FF0000;strokeWidth=3;dashed=1;dashPattern=1 1;" edge="1" parent="DVevCvVaEX97VUiW8VQT-6" source="DVevCvVaEX97VUiW8VQT-15">
          <mxGeometry width="50" height="50" relative="1" as="geometry">
            <mxPoint x="364.8461538461538" y="111.5" as="sourcePoint"/>
            <mxPoint x="236" y="79.89622641509436" as="targetPoint"/>
          </mxGeometry>
        </mxCell>
        <mxCell id="DVevCvVaEX97VUiW8VQT-13" value="" style="html=1;shadow=0;dashed=0;shape=mxgraph.bootstrap.rrect;align=center;rSize=5;strokeColor=#7F00FF;fontColor=#f0f0f0;spacingTop=30;whiteSpace=wrap;fillColor=none;strokeWidth=3;" parent="QqAQgJ3KjBi81qIqSDTb-1" vertex="1">
          <mxGeometry x="20" y="500" width="760" height="90" as="geometry"/>
        </mxCell>
        <mxCell id="DVevCvVaEX97VUiW8VQT-14" value="数据持久层" style="html=1;shadow=0;dashed=0;shape=mxgraph.bootstrap.topButton;rSize=5;strokeColor=none;fillColor=none;fontColor=#000000;fontSize=18;fontStyle=1;align=left;spacingLeft=10;whiteSpace=wrap;resizeWidth=1;" parent="DVevCvVaEX97VUiW8VQT-13" vertex="1">
          <mxGeometry width="760.0000000000001" height="30" relative="1" as="geometry"/>
        </mxCell>
        <mxCell id="DVevCvVaEX97VUiW8VQT-15" value="固件信息库组件" style="html=1;shadow=0;dashed=0;shape=mxgraph.bootstrap.rrect;align=center;rSize=5;strokeColor=none;fillColor=#B266FF;fontColor=#ffffff;fontStyle=1;whiteSpace=wrap;fontSize=16;fontFamily=楷体;" parent="DVevCvVaEX97VUiW8VQT-13" vertex="1">
          <mxGeometry x="40" y="40" width="150" height="40" as="geometry"/>
        </mxCell>
        <mxCell id="DVevCvVaEX97VUiW8VQT-16" value="漏洞库组件" style="html=1;shadow=0;dashed=0;shape=mxgraph.bootstrap.rrect;align=center;rSize=5;strokeColor=none;fillColor=#B266FF;fontColor=#ffffff;fontStyle=1;whiteSpace=wrap;fontSize=16;fontFamily=楷体;" parent="DVevCvVaEX97VUiW8VQT-13" vertex="1">
          <mxGeometry x="217" y="40" width="150" height="40" as="geometry"/>
        </mxCell>
        <mxCell id="DVevCvVaEX97VUiW8VQT-18" value="缺陷模板库组件" style="html=1;shadow=0;dashed=0;shape=mxgraph.bootstrap.rrect;align=center;rSize=5;strokeColor=none;fillColor=#B266FF;fontColor=#ffffff;fontStyle=1;whiteSpace=wrap;fontSize=16;fontFamily=楷体;" parent="DVevCvVaEX97VUiW8VQT-13" vertex="1">
          <mxGeometry x="570" y="40" width="150" height="40" as="geometry"/>
        </mxCell>
        <mxCell id="ehfEfvWSxTRkCNzZWajF-26" value="系统字典组件" style="html=1;shadow=0;dashed=0;shape=mxgraph.bootstrap.rrect;align=center;rSize=5;strokeColor=none;fillColor=#B266FF;fontColor=#ffffff;fontStyle=1;whiteSpace=wrap;fontSize=16;fontFamily=楷体;" parent="DVevCvVaEX97VUiW8VQT-13" vertex="1">
          <mxGeometry x="393" y="40" width="150" height="40" as="geometry"/>
        </mxCell>
        <mxCell id="DVevCvVaEX97VUiW8VQT-19" value="" style="html=1;shadow=0;dashed=0;shape=mxgraph.bootstrap.rrect;align=center;rSize=5;strokeColor=#FF6666;fontColor=#f0f0f0;spacingTop=30;whiteSpace=wrap;fillColor=none;strokeWidth=3;" parent="QqAQgJ3KjBi81qIqSDTb-1" vertex="1">
          <mxGeometry x="20" y="610" width="760" height="90" as="geometry"/>
        </mxCell>
        <mxCell id="DVevCvVaEX97VUiW8VQT-20" value="基础设施层" style="html=1;shadow=0;dashed=0;shape=mxgraph.bootstrap.topButton;rSize=5;strokeColor=none;fillColor=none;fontColor=#000000;fontSize=18;fontStyle=1;align=left;spacingLeft=10;whiteSpace=wrap;resizeWidth=1;" parent="DVevCvVaEX97VUiW8VQT-19" vertex="1">
          <mxGeometry width="760.0000000000001" height="30" relative="1" as="geometry"/>
        </mxCell>
        <mxCell id="DVevCvVaEX97VUiW8VQT-21" value="发电仿真组件" style="html=1;shadow=0;dashed=0;shape=mxgraph.bootstrap.rrect;align=center;rSize=5;strokeColor=none;fillColor=#FF9999;fontColor=#ffffff;fontStyle=1;whiteSpace=wrap;fontSize=16;fontFamily=楷体;" parent="DVevCvVaEX97VUiW8VQT-19" vertex="1">
          <mxGeometry x="40" y="40" width="120" height="40" as="geometry"/>
        </mxCell>
        <mxCell id="DVevCvVaEX97VUiW8VQT-22" value="输电仿真组件" style="html=1;shadow=0;dashed=0;shape=mxgraph.bootstrap.rrect;align=center;rSize=5;strokeColor=none;fillColor=#FF9999;fontColor=#ffffff;fontStyle=1;whiteSpace=wrap;fontSize=16;fontFamily=楷体;" parent="DVevCvVaEX97VUiW8VQT-19" vertex="1">
          <mxGeometry x="180" y="40" width="120" height="40" as="geometry"/>
        </mxCell>
        <mxCell id="DVevCvVaEX97VUiW8VQT-23" value="变电仿真组件" style="html=1;shadow=0;dashed=0;shape=mxgraph.bootstrap.rrect;align=center;rSize=5;strokeColor=none;fillColor=#FF9999;fontColor=#ffffff;fontStyle=1;whiteSpace=wrap;fontSize=16;fontFamily=楷体;" parent="DVevCvVaEX97VUiW8VQT-19" vertex="1">
          <mxGeometry x="320" y="40" width="120" height="40" as="geometry"/>
        </mxCell>
        <mxCell id="DVevCvVaEX97VUiW8VQT-24" value="配电仿真组件" style="html=1;shadow=0;dashed=0;shape=mxgraph.bootstrap.rrect;align=center;rSize=5;strokeColor=none;fillColor=#FF9999;fontColor=#ffffff;fontStyle=1;whiteSpace=wrap;fontSize=16;fontFamily=楷体;" parent="DVevCvVaEX97VUiW8VQT-19" vertex="1">
          <mxGeometry x="460" y="40" width="120" height="40" as="geometry"/>
        </mxCell>
        <mxCell id="DVevCvVaEX97VUiW8VQT-25" value="调度仿真组件" style="html=1;shadow=0;dashed=0;shape=mxgraph.bootstrap.rrect;align=center;rSize=5;strokeColor=none;fillColor=#FF9999;fontColor=#ffffff;fontStyle=1;whiteSpace=wrap;fontSize=16;fontFamily=楷体;" parent="DVevCvVaEX97VUiW8VQT-19" vertex="1">
          <mxGeometry x="600" y="40" width="120" height="40" as="geometry"/>
        </mxCell>
        <mxCell id="W5XFSV_c3Iy3PhTVYnS9-1" value="" style="endArrow=classic;html=1;fontColor=#000000;strokeColor=#FF0000;strokeWidth=3;dashed=1;dashPattern=1 1;entryX=0.548;entryY=1.013;entryDx=0;entryDy=0;entryPerimeter=0;" edge="1" parent="QqAQgJ3KjBi81qIqSDTb-1" source="DVevCvVaEX97VUiW8VQT-16" target="DVevCvVaEX97VUiW8VQT-9">
          <mxGeometry width="50" height="50" relative="1" as="geometry">
            <mxPoint x="172.00779111391876" y="550" as="sourcePoint"/>
            <mxPoint x="266" y="480.39622641509436" as="targetPoint"/>
          </mxGeometry>
        </mxCell>
        <mxCell id="W5XFSV_c3Iy3PhTVYnS9-2" value="" style="endArrow=classic;html=1;fontColor=#000000;strokeColor=#FF0000;strokeWidth=3;dashed=1;dashPattern=1 1;entryX=0.799;entryY=1.013;entryDx=0;entryDy=0;entryPerimeter=0;exitX=0.256;exitY=0.035;exitDx=0;exitDy=0;exitPerimeter=0;" edge="1" parent="QqAQgJ3KjBi81qIqSDTb-1" source="DVevCvVaEX97VUiW8VQT-18" target="DVevCvVaEX97VUiW8VQT-9">
          <mxGeometry width="50" height="50" relative="1" as="geometry">
            <mxPoint x="182.00779111391876" y="560" as="sourcePoint"/>
            <mxPoint x="276" y="490.39622641509436" as="targetPoint"/>
          </mxGeometry>
        </mxCell>
        <mxCell id="W5XFSV_c3Iy3PhTVYnS9-3" value="" style="endArrow=classic;html=1;fontColor=#000000;strokeColor=#FF0000;strokeWidth=3;dashed=1;dashPattern=1 1;entryX=0.413;entryY=0.988;entryDx=0;entryDy=0;entryPerimeter=0;" edge="1" parent="QqAQgJ3KjBi81qIqSDTb-1" source="DVevCvVaEX97VUiW8VQT-15" target="DVevCvVaEX97VUiW8VQT-8">
          <mxGeometry width="50" height="50" relative="1" as="geometry">
            <mxPoint x="192.00779111391876" y="570" as="sourcePoint"/>
            <mxPoint x="286" y="500.39622641509436" as="targetPoint"/>
          </mxGeometry>
        </mxCell>
        <mxCell id="W5XFSV_c3Iy3PhTVYnS9-4" value="" style="endArrow=classic;html=1;fontColor=#000000;strokeColor=#FF0000;strokeWidth=3;dashed=1;dashPattern=1 1;" edge="1" parent="QqAQgJ3KjBi81qIqSDTb-1" source="DVevCvVaEX97VUiW8VQT-16" target="DVevCvVaEX97VUiW8VQT-10">
          <mxGeometry width="50" height="50" relative="1" as="geometry">
            <mxPoint x="202.00779111391876" y="580" as="sourcePoint"/>
            <mxPoint x="296" y="510.39622641509436" as="targetPoint"/>
          </mxGeometry>
        </mxCell>
        <mxCell id="W5XFSV_c3Iy3PhTVYnS9-5" value="" style="endArrow=classic;html=1;fontColor=#000000;strokeColor=#FF0000;strokeWidth=3;dashed=1;dashPattern=1 1;entryX=0.4;entryY=0.992;entryDx=0;entryDy=0;entryPerimeter=0;exitX=0.645;exitY=0;exitDx=0;exitDy=0;exitPerimeter=0;" edge="1" parent="QqAQgJ3KjBi81qIqSDTb-1" source="DVevCvVaEX97VUiW8VQT-13" target="DVevCvVaEX97VUiW8VQT-12">
          <mxGeometry width="50" height="50" relative="1" as="geometry">
            <mxPoint x="212.00779111391876" y="590" as="sourcePoint"/>
            <mxPoint x="306" y="520.3962264150944" as="targetPoint"/>
          </mxGeometry>
        </mxCell>
        <mxCell id="W5XFSV_c3Iy3PhTVYnS9-6" value="" style="endArrow=classic;html=1;fontColor=#000000;strokeColor=#FF0000;strokeWidth=3;dashed=1;dashPattern=1 1;exitX=0.392;exitY=0.02;exitDx=0;exitDy=0;exitPerimeter=0;" edge="1" parent="QqAQgJ3KjBi81qIqSDTb-1" source="DVevCvVaEX97VUiW8VQT-19" target="DVevCvVaEX97VUiW8VQT-15">
          <mxGeometry width="50" height="50" relative="1" as="geometry">
            <mxPoint x="222.00779111391876" y="600" as="sourcePoint"/>
            <mxPoint x="316" y="530.3962264150944" as="targetPoint"/>
          </mxGeometry>
        </mxCell>
        <mxCell id="W5XFSV_c3Iy3PhTVYnS9-7" value="" style="endArrow=classic;html=1;fontColor=#000000;strokeColor=#FF0000;strokeWidth=3;dashed=1;dashPattern=1 1;exitX=0.176;exitY=0.013;exitDx=0;exitDy=0;exitPerimeter=0;" edge="1" parent="QqAQgJ3KjBi81qIqSDTb-1" source="DVevCvVaEX97VUiW8VQT-12" target="DVevCvVaEX97VUiW8VQT-4">
          <mxGeometry width="50" height="50" relative="1" as="geometry">
            <mxPoint x="232.00779111391876" y="610" as="sourcePoint"/>
            <mxPoint x="326" y="540.3962264150944" as="targetPoint"/>
          </mxGeometry>
        </mxCell>
        <mxCell id="W5XFSV_c3Iy3PhTVYnS9-8" value="" style="endArrow=classic;html=1;fontColor=#000000;strokeColor=#FF0000;strokeWidth=3;dashed=1;dashPattern=1 1;" edge="1" parent="QqAQgJ3KjBi81qIqSDTb-1" source="DVevCvVaEX97VUiW8VQT-12" target="DVevCvVaEX97VUiW8VQT-5">
          <mxGeometry width="50" height="50" relative="1" as="geometry">
            <mxPoint x="242.00779111391876" y="620" as="sourcePoint"/>
            <mxPoint x="336" y="550.3962264150944" as="targetPoint"/>
          </mxGeometry>
        </mxCell>
        <mxCell id="W5XFSV_c3Iy3PhTVYnS9-9" value="" style="endArrow=classic;html=1;fontColor=#000000;strokeColor=#FF0000;strokeWidth=3;dashed=1;dashPattern=1 1;exitX=0.329;exitY=-0.028;exitDx=0;exitDy=0;exitPerimeter=0;" edge="1" parent="QqAQgJ3KjBi81qIqSDTb-1" source="DVevCvVaEX97VUiW8VQT-9" target="DVevCvVaEX97VUiW8VQT-2">
          <mxGeometry width="50" height="50" relative="1" as="geometry">
            <mxPoint x="252.00779111391876" y="630" as="sourcePoint"/>
            <mxPoint x="346" y="560.3962264150944" as="targetPoint"/>
          </mxGeometry>
        </mxCell>
        <mxCell id="W5XFSV_c3Iy3PhTVYnS9-10" value="" style="endArrow=classic;html=1;fontColor=#000000;strokeColor=#FF0000;strokeWidth=3;dashed=1;dashPattern=1 1;entryX=0.994;entryY=0.974;entryDx=0;entryDy=0;entryPerimeter=0;" edge="1" parent="QqAQgJ3KjBi81qIqSDTb-1" source="DVevCvVaEX97VUiW8VQT-10" target="DVevCvVaEX97VUiW8VQT-2">
          <mxGeometry width="50" height="50" relative="1" as="geometry">
            <mxPoint x="262.00779111391876" y="640" as="sourcePoint"/>
            <mxPoint x="356" y="570.3962264150944" as="targetPoint"/>
          </mxGeometry>
        </mxCell>
      </root>
    </mxGraphModel>
  </diagram>
  <diagram id="jZLKzH1V-WnM7EQkGspJ" name="入侵检测">
    <mxGraphModel dx="1024" dy="534" grid="1" gridSize="10" guides="1" tooltips="1" connect="1" arrows="1" fold="1" page="1" pageScale="1" pageWidth="827" pageHeight="1169" math="0" shadow="0">
      <root>
        <mxCell id="eSloQVtuS_DJS62Nckxv-0"/>
        <mxCell id="eSloQVtuS_DJS62Nckxv-1" parent="eSloQVtuS_DJS62Nckxv-0"/>
        <mxCell id="PfVu0jtfiU7jT98KqNei-0" value="" style="html=1;shadow=0;dashed=0;shape=mxgraph.bootstrap.rrect;align=center;rSize=5;strokeColor=#00994D;fontColor=#f0f0f0;spacingTop=30;whiteSpace=wrap;fillColor=none;strokeWidth=3;" parent="eSloQVtuS_DJS62Nckxv-1" vertex="1">
          <mxGeometry x="33" y="320" width="760" height="90" as="geometry"/>
        </mxCell>
        <mxCell id="PfVu0jtfiU7jT98KqNei-1" value="系统展示层" style="html=1;shadow=0;dashed=0;shape=mxgraph.bootstrap.topButton;rSize=5;strokeColor=none;fillColor=none;fontColor=#000000;fontSize=18;fontStyle=1;align=left;spacingLeft=10;whiteSpace=wrap;resizeWidth=1;" parent="PfVu0jtfiU7jT98KqNei-0" vertex="1">
          <mxGeometry width="760.0000000000001" height="30" relative="1" as="geometry"/>
        </mxCell>
        <mxCell id="PfVu0jtfiU7jT98KqNei-2" value="威胁告警组件" style="html=1;shadow=0;dashed=0;shape=mxgraph.bootstrap.rrect;align=center;rSize=5;strokeColor=none;fillColor=#499948;fontColor=#ffffff;fontStyle=1;whiteSpace=wrap;fontSize=16;fontFamily=楷体;" parent="PfVu0jtfiU7jT98KqNei-0" vertex="1">
          <mxGeometry x="40" y="44.72727272727273" width="140" height="36" as="geometry"/>
        </mxCell>
        <mxCell id="PfVu0jtfiU7jT98KqNei-3" value="流量统计展示组件" style="html=1;shadow=0;dashed=0;shape=mxgraph.bootstrap.rrect;align=center;rSize=5;strokeColor=none;fillColor=#499948;fontColor=#ffffff;fontStyle=1;whiteSpace=wrap;fontSize=16;fontFamily=楷体;" parent="PfVu0jtfiU7jT98KqNei-0" vertex="1">
          <mxGeometry x="221" y="44.72727272727273" width="140" height="36" as="geometry"/>
        </mxCell>
        <mxCell id="PfVu0jtfiU7jT98KqNei-4" value="网络态势展示组件" style="html=1;shadow=0;dashed=0;shape=mxgraph.bootstrap.rrect;align=center;rSize=5;strokeColor=none;fillColor=#499948;fontColor=#ffffff;fontStyle=1;whiteSpace=wrap;fontSize=16;fontFamily=楷体;" parent="PfVu0jtfiU7jT98KqNei-0" vertex="1">
          <mxGeometry x="403" y="44.72727272727273" width="140" height="36" as="geometry"/>
        </mxCell>
        <mxCell id="PfVu0jtfiU7jT98KqNei-5" value="数据查询展示组件" style="html=1;shadow=0;dashed=0;shape=mxgraph.bootstrap.rrect;align=center;rSize=5;strokeColor=none;fillColor=#499948;fontColor=#ffffff;fontStyle=1;whiteSpace=wrap;fontSize=16;fontFamily=楷体;" parent="PfVu0jtfiU7jT98KqNei-0" vertex="1">
          <mxGeometry x="584" y="44.72727272727275" width="140" height="36" as="geometry"/>
        </mxCell>
        <mxCell id="PfVu0jtfiU7jT98KqNei-6" value="" style="html=1;shadow=0;dashed=0;shape=mxgraph.bootstrap.rrect;align=center;rSize=5;strokeColor=#0D5B9D;fontColor=#f0f0f0;spacingTop=30;whiteSpace=wrap;fillColor=none;strokeWidth=3;" parent="eSloQVtuS_DJS62Nckxv-1" vertex="1">
          <mxGeometry x="33" y="430.5" width="760" height="90" as="geometry"/>
        </mxCell>
        <mxCell id="PfVu0jtfiU7jT98KqNei-7" value="核心业务层" style="html=1;shadow=0;dashed=0;shape=mxgraph.bootstrap.topButton;rSize=5;strokeColor=none;fillColor=none;fontColor=#000000;fontSize=18;fontStyle=1;align=left;spacingLeft=10;whiteSpace=wrap;resizeWidth=1;" parent="PfVu0jtfiU7jT98KqNei-6" vertex="1">
          <mxGeometry width="760.0000000000001" height="30" relative="1" as="geometry"/>
        </mxCell>
        <mxCell id="PfVu0jtfiU7jT98KqNei-8" value="协议识别组件" style="html=1;shadow=0;dashed=0;shape=mxgraph.bootstrap.rrect;align=center;rSize=5;strokeColor=none;fillColor=#0D5B9D;fontColor=#ffffff;fontStyle=1;whiteSpace=wrap;fontSize=16;fontFamily=楷体;" parent="PfVu0jtfiU7jT98KqNei-6" vertex="1">
          <mxGeometry x="38" y="40" width="153" height="40" as="geometry"/>
        </mxCell>
        <mxCell id="PfVu0jtfiU7jT98KqNei-9" value="设备配置采集组件" style="html=1;shadow=0;dashed=0;shape=mxgraph.bootstrap.rrect;align=center;rSize=5;strokeColor=none;fillColor=#0D5B9D;fontColor=#ffffff;fontStyle=1;whiteSpace=wrap;fontSize=16;fontFamily=楷体;" parent="PfVu0jtfiU7jT98KqNei-6" vertex="1">
          <mxGeometry x="214" y="40" width="153" height="40" as="geometry"/>
        </mxCell>
        <mxCell id="PfVu0jtfiU7jT98KqNei-11" value="规则配置组件" style="html=1;shadow=0;dashed=0;shape=mxgraph.bootstrap.rrect;align=center;rSize=5;strokeColor=none;fillColor=#0D5B9D;fontColor=#ffffff;fontStyle=1;whiteSpace=wrap;fontSize=16;fontFamily=楷体;" parent="PfVu0jtfiU7jT98KqNei-6" vertex="1">
          <mxGeometry x="391" y="40" width="153" height="40" as="geometry"/>
        </mxCell>
        <mxCell id="PfVu0jtfiU7jT98KqNei-12" value="数据查询组件" style="html=1;shadow=0;dashed=0;shape=mxgraph.bootstrap.rrect;align=center;rSize=5;strokeColor=none;fillColor=#0D5B9D;fontColor=#ffffff;fontStyle=1;whiteSpace=wrap;fontSize=16;fontFamily=楷体;" parent="PfVu0jtfiU7jT98KqNei-6" vertex="1">
          <mxGeometry x="567" y="40" width="153" height="40" as="geometry"/>
        </mxCell>
        <mxCell id="OFzTTniyytlPaCHRhvb2-2" value="" style="endArrow=classic;html=1;fontColor=#000000;strokeColor=#FF0000;strokeWidth=3;dashed=1;dashPattern=1 1;" edge="1" parent="PfVu0jtfiU7jT98KqNei-6" source="PfVu0jtfiU7jT98KqNei-17">
          <mxGeometry width="50" height="50" relative="1" as="geometry">
            <mxPoint x="566.9200000000001" y="111.79999999999995" as="sourcePoint"/>
            <mxPoint x="454.6254826254826" y="80" as="targetPoint"/>
          </mxGeometry>
        </mxCell>
        <mxCell id="OFzTTniyytlPaCHRhvb2-3" value="" style="endArrow=classic;html=1;fontColor=#000000;strokeColor=#FF0000;strokeWidth=3;dashed=1;dashPattern=1 1;" edge="1" parent="PfVu0jtfiU7jT98KqNei-6" source="PfVu0jtfiU7jT98KqNei-18">
          <mxGeometry width="50" height="50" relative="1" as="geometry">
            <mxPoint x="622.9200000000001" y="111.79999999999995" as="sourcePoint"/>
            <mxPoint x="510.6254826254826" y="80" as="targetPoint"/>
          </mxGeometry>
        </mxCell>
        <mxCell id="sprJRK4h9B1TwebH1Drv-1" value="" style="endArrow=classic;html=1;fontColor=#000000;strokeColor=#FF0000;strokeWidth=3;dashed=1;dashPattern=1 1;" edge="1" parent="PfVu0jtfiU7jT98KqNei-6" source="PfVu0jtfiU7jT98KqNei-15">
          <mxGeometry width="50" height="50" relative="1" as="geometry">
            <mxPoint x="160.99731455318056" y="149" as="sourcePoint"/>
            <mxPoint x="107.12548262548262" y="79.5" as="targetPoint"/>
          </mxGeometry>
        </mxCell>
        <mxCell id="sprJRK4h9B1TwebH1Drv-2" value="" style="endArrow=classic;html=1;fontColor=#000000;strokeColor=#FF0000;strokeWidth=3;dashed=1;dashPattern=1 1;" edge="1" parent="PfVu0jtfiU7jT98KqNei-6" source="PfVu0jtfiU7jT98KqNei-16">
          <mxGeometry width="50" height="50" relative="1" as="geometry">
            <mxPoint x="360.99731455318056" y="149.5" as="sourcePoint"/>
            <mxPoint x="307.1254826254826" y="80" as="targetPoint"/>
          </mxGeometry>
        </mxCell>
        <mxCell id="PfVu0jtfiU7jT98KqNei-13" value="" style="html=1;shadow=0;dashed=0;shape=mxgraph.bootstrap.rrect;align=center;rSize=5;strokeColor=#76608A;fontColor=#f0f0f0;spacingTop=30;whiteSpace=wrap;fillColor=none;strokeWidth=3;" parent="eSloQVtuS_DJS62Nckxv-1" vertex="1">
          <mxGeometry x="33" y="540" width="760" height="90" as="geometry"/>
        </mxCell>
        <mxCell id="PfVu0jtfiU7jT98KqNei-14" value="数据持久层" style="html=1;shadow=0;dashed=0;shape=mxgraph.bootstrap.topButton;rSize=5;strokeColor=none;fillColor=none;fontColor=#000000;fontSize=18;fontStyle=1;align=left;spacingLeft=10;whiteSpace=wrap;resizeWidth=1;" parent="PfVu0jtfiU7jT98KqNei-13" vertex="1">
          <mxGeometry width="760.0000000000001" height="30" relative="1" as="geometry"/>
        </mxCell>
        <mxCell id="PfVu0jtfiU7jT98KqNei-15" value="协议特征库组件" style="html=1;shadow=0;dashed=0;shape=mxgraph.bootstrap.rrect;align=center;rSize=5;strokeColor=#76608A;fillColor=#76608A;fontColor=#ffffff;fontStyle=1;whiteSpace=wrap;fontSize=16;fontFamily=楷体;" parent="PfVu0jtfiU7jT98KqNei-13" vertex="1">
          <mxGeometry x="40" y="40" width="120" height="40" as="geometry"/>
        </mxCell>
        <mxCell id="PfVu0jtfiU7jT98KqNei-16" value="资产库组件" style="html=1;shadow=0;dashed=0;shape=mxgraph.bootstrap.rrect;align=center;rSize=5;strokeColor=#76608A;fillColor=#76608A;fontColor=#ffffff;fontStyle=1;whiteSpace=wrap;fontSize=16;fontFamily=楷体;" parent="PfVu0jtfiU7jT98KqNei-13" vertex="1">
          <mxGeometry x="186" y="40" width="110" height="40" as="geometry"/>
        </mxCell>
        <mxCell id="PfVu0jtfiU7jT98KqNei-17" value="规则库组件" style="html=1;shadow=0;dashed=0;shape=mxgraph.bootstrap.rrect;align=center;rSize=5;strokeColor=#76608A;fillColor=#76608A;fontColor=#ffffff;fontStyle=1;whiteSpace=wrap;fontSize=16;fontFamily=楷体;" parent="PfVu0jtfiU7jT98KqNei-13" vertex="1">
          <mxGeometry x="469" y="40" width="110" height="40" as="geometry"/>
        </mxCell>
        <mxCell id="PfVu0jtfiU7jT98KqNei-18" value="系统字典组件" style="html=1;shadow=0;dashed=0;shape=mxgraph.bootstrap.rrect;align=center;rSize=5;strokeColor=#76608A;fillColor=#76608A;fontColor=#ffffff;fontStyle=1;whiteSpace=wrap;fontSize=16;fontFamily=楷体;" parent="PfVu0jtfiU7jT98KqNei-13" vertex="1">
          <mxGeometry x="610" y="40" width="110" height="40" as="geometry"/>
        </mxCell>
        <mxCell id="PfVu0jtfiU7jT98KqNei-26" value="攻击事件库组件" style="html=1;shadow=0;dashed=0;shape=mxgraph.bootstrap.rrect;align=center;rSize=5;strokeColor=#76608A;fillColor=#76608A;fontColor=#ffffff;fontStyle=1;whiteSpace=wrap;fontSize=16;fontFamily=楷体;" parent="PfVu0jtfiU7jT98KqNei-13" vertex="1">
          <mxGeometry x="321" y="40" width="123" height="40" as="geometry"/>
        </mxCell>
        <mxCell id="PfVu0jtfiU7jT98KqNei-19" value="" style="html=1;shadow=0;dashed=0;shape=mxgraph.bootstrap.rrect;align=center;rSize=5;strokeColor=#8C008C;fontColor=#f0f0f0;spacingTop=30;whiteSpace=wrap;fillColor=none;strokeWidth=3;" parent="eSloQVtuS_DJS62Nckxv-1" vertex="1">
          <mxGeometry x="33" y="650" width="760" height="90" as="geometry"/>
        </mxCell>
        <mxCell id="PfVu0jtfiU7jT98KqNei-20" value="基础设施层" style="html=1;shadow=0;dashed=0;shape=mxgraph.bootstrap.topButton;rSize=5;strokeColor=none;fillColor=none;fontColor=#000000;fontSize=18;fontStyle=1;align=left;spacingLeft=10;whiteSpace=wrap;resizeWidth=1;" parent="PfVu0jtfiU7jT98KqNei-19" vertex="1">
          <mxGeometry width="760.0000000000001" height="30" relative="1" as="geometry"/>
        </mxCell>
        <mxCell id="PfVu0jtfiU7jT98KqNei-21" value="发电仿真组件" style="html=1;shadow=0;dashed=0;shape=mxgraph.bootstrap.rrect;align=center;rSize=5;strokeColor=#B20000;fillColor=#8C008C;fontColor=#ffffff;fontStyle=1;whiteSpace=wrap;fontSize=16;fontFamily=楷体;" parent="PfVu0jtfiU7jT98KqNei-19" vertex="1">
          <mxGeometry x="40" y="40" width="120" height="40" as="geometry"/>
        </mxCell>
        <mxCell id="PfVu0jtfiU7jT98KqNei-22" value="输电仿真组件" style="html=1;shadow=0;dashed=0;shape=mxgraph.bootstrap.rrect;align=center;rSize=5;strokeColor=#B20000;fillColor=#8C008C;fontColor=#ffffff;fontStyle=1;whiteSpace=wrap;fontSize=16;fontFamily=楷体;" parent="PfVu0jtfiU7jT98KqNei-19" vertex="1">
          <mxGeometry x="180" y="40" width="120" height="40" as="geometry"/>
        </mxCell>
        <mxCell id="PfVu0jtfiU7jT98KqNei-23" value="变电仿真组件" style="html=1;shadow=0;dashed=0;shape=mxgraph.bootstrap.rrect;align=center;rSize=5;strokeColor=#B20000;fillColor=#8C008C;fontColor=#ffffff;fontStyle=1;whiteSpace=wrap;fontSize=16;fontFamily=楷体;" parent="PfVu0jtfiU7jT98KqNei-19" vertex="1">
          <mxGeometry x="320" y="40" width="120" height="40" as="geometry"/>
        </mxCell>
        <mxCell id="PfVu0jtfiU7jT98KqNei-24" value="配电仿真组件" style="html=1;shadow=0;dashed=0;shape=mxgraph.bootstrap.rrect;align=center;rSize=5;strokeColor=#B20000;fillColor=#8C008C;fontColor=#ffffff;fontStyle=1;whiteSpace=wrap;fontSize=16;fontFamily=楷体;" parent="PfVu0jtfiU7jT98KqNei-19" vertex="1">
          <mxGeometry x="460" y="40" width="120" height="40" as="geometry"/>
        </mxCell>
        <mxCell id="PfVu0jtfiU7jT98KqNei-25" value="调度仿真组件" style="html=1;shadow=0;dashed=0;shape=mxgraph.bootstrap.rrect;align=center;rSize=5;strokeColor=#B20000;fillColor=#8C008C;fontColor=#ffffff;fontStyle=1;whiteSpace=wrap;fontSize=16;fontFamily=楷体;" parent="PfVu0jtfiU7jT98KqNei-19" vertex="1">
          <mxGeometry x="600" y="40" width="120" height="40" as="geometry"/>
        </mxCell>
        <mxCell id="OFzTTniyytlPaCHRhvb2-0" value="" style="endArrow=classic;html=1;fontColor=#000000;strokeColor=#FF0000;strokeWidth=3;dashed=1;dashPattern=1 1;" edge="1" parent="eSloQVtuS_DJS62Nckxv-1" source="PfVu0jtfiU7jT98KqNei-20" target="PfVu0jtfiU7jT98KqNei-16">
          <mxGeometry width="50" height="50" relative="1" as="geometry">
            <mxPoint x="317.9200000000001" y="611.8" as="sourcePoint"/>
            <mxPoint x="205.62548262548262" y="580" as="targetPoint"/>
          </mxGeometry>
        </mxCell>
        <mxCell id="sprJRK4h9B1TwebH1Drv-0" value="" style="edgeStyle=segmentEdgeStyle;endArrow=classic;html=1;strokeColor=#FF0000;strokeWidth=3;fontColor=#000000;dashed=1;dashPattern=1 1;" edge="1" parent="eSloQVtuS_DJS62Nckxv-1" target="PfVu0jtfiU7jT98KqNei-9">
          <mxGeometry width="50" height="50" relative="1" as="geometry">
            <mxPoint x="200" y="649" as="sourcePoint"/>
            <mxPoint x="140" y="470.5" as="targetPoint"/>
            <Array as="points">
              <mxPoint x="210" y="649"/>
              <mxPoint x="210" y="560"/>
              <mxPoint x="280" y="560"/>
            </Array>
          </mxGeometry>
        </mxCell>
        <mxCell id="sprJRK4h9B1TwebH1Drv-3" value="" style="edgeStyle=segmentEdgeStyle;endArrow=classic;html=1;strokeColor=#FF0000;strokeWidth=3;fontColor=#000000;dashed=1;dashPattern=1 1;exitX=0.598;exitY=-0.125;exitDx=0;exitDy=0;exitPerimeter=0;" edge="1" parent="eSloQVtuS_DJS62Nckxv-1" source="PfVu0jtfiU7jT98KqNei-26" target="PfVu0jtfiU7jT98KqNei-2">
          <mxGeometry width="50" height="50" relative="1" as="geometry">
            <mxPoint x="210" y="659" as="sourcePoint"/>
            <mxPoint x="210" y="420" as="targetPoint"/>
            <Array as="points">
              <mxPoint x="428" y="550"/>
              <mxPoint x="410" y="550"/>
              <mxPoint x="410" y="420"/>
              <mxPoint x="143" y="420"/>
            </Array>
          </mxGeometry>
        </mxCell>
        <mxCell id="sprJRK4h9B1TwebH1Drv-4" value="" style="endArrow=classic;html=1;fontColor=#000000;strokeColor=#FF0000;strokeWidth=3;dashed=1;dashPattern=1 1;" edge="1" parent="eSloQVtuS_DJS62Nckxv-1" source="PfVu0jtfiU7jT98KqNei-12">
          <mxGeometry width="50" height="50" relative="1" as="geometry">
            <mxPoint x="573.9973145531806" y="465.5" as="sourcePoint"/>
            <mxPoint x="520.1254826254826" y="396" as="targetPoint"/>
          </mxGeometry>
        </mxCell>
        <mxCell id="sprJRK4h9B1TwebH1Drv-5" value="" style="endArrow=classic;html=1;fontColor=#000000;strokeColor=#FF0000;strokeWidth=3;dashed=1;dashPattern=1 1;" edge="1" parent="eSloQVtuS_DJS62Nckxv-1" source="PfVu0jtfiU7jT98KqNei-12" target="PfVu0jtfiU7jT98KqNei-5">
          <mxGeometry width="50" height="50" relative="1" as="geometry">
            <mxPoint x="561.4973145531806" y="600" as="sourcePoint"/>
            <mxPoint x="507.6254826254826" y="530.5" as="targetPoint"/>
          </mxGeometry>
        </mxCell>
        <mxCell id="sprJRK4h9B1TwebH1Drv-6" value="" style="endArrow=classic;html=1;fontColor=#000000;strokeColor=#FF0000;strokeWidth=3;dashed=1;dashPattern=1 1;entryX=0.659;entryY=0.996;entryDx=0;entryDy=0;entryPerimeter=0;" edge="1" parent="eSloQVtuS_DJS62Nckxv-1" source="PfVu0jtfiU7jT98KqNei-8" target="PfVu0jtfiU7jT98KqNei-2">
          <mxGeometry width="50" height="50" relative="1" as="geometry">
            <mxPoint x="571.4973145531806" y="610" as="sourcePoint"/>
            <mxPoint x="340" y="270" as="targetPoint"/>
          </mxGeometry>
        </mxCell>
        <mxCell id="sprJRK4h9B1TwebH1Drv-7" value="" style="endArrow=classic;html=1;fontColor=#000000;strokeColor=#FF0000;strokeWidth=3;dashed=1;dashPattern=1 1;entryX=0.926;entryY=0.974;entryDx=0;entryDy=0;entryPerimeter=0;" edge="1" parent="eSloQVtuS_DJS62Nckxv-1" source="PfVu0jtfiU7jT98KqNei-12" target="PfVu0jtfiU7jT98KqNei-3">
          <mxGeometry width="50" height="50" relative="1" as="geometry">
            <mxPoint x="581.4973145531806" y="620" as="sourcePoint"/>
            <mxPoint x="527.6254826254826" y="550.5" as="targetPoint"/>
          </mxGeometry>
        </mxCell>
      </root>
    </mxGraphModel>
  </diagram>
  <diagram id="5bEEZY0vLlzLyStRDE6p" name="试验管控">
    <mxGraphModel dx="1024" dy="534" grid="1" gridSize="10" guides="1" tooltips="1" connect="1" arrows="1" fold="1" page="1" pageScale="1" pageWidth="827" pageHeight="1169" math="0" shadow="0">
      <root>
        <mxCell id="TYmeZ0yaHEhEsfv02S1p-0"/>
        <mxCell id="TYmeZ0yaHEhEsfv02S1p-1" parent="TYmeZ0yaHEhEsfv02S1p-0"/>
        <mxCell id="0B9Z9vkxKo9aDNmEN0Qr-0" value="" style="html=1;shadow=0;dashed=0;shape=mxgraph.bootstrap.rrect;align=center;rSize=5;strokeColor=#00994D;fontColor=#f0f0f0;spacingTop=30;whiteSpace=wrap;fillColor=none;strokeWidth=3;" parent="TYmeZ0yaHEhEsfv02S1p-1" vertex="1">
          <mxGeometry x="33" y="320" width="760" height="90" as="geometry"/>
        </mxCell>
        <mxCell id="0B9Z9vkxKo9aDNmEN0Qr-1" value="系统展示层" style="html=1;shadow=0;dashed=0;shape=mxgraph.bootstrap.topButton;rSize=5;strokeColor=none;fillColor=none;fontColor=#000000;fontSize=18;fontStyle=1;align=left;spacingLeft=10;whiteSpace=wrap;resizeWidth=1;" parent="0B9Z9vkxKo9aDNmEN0Qr-0" vertex="1">
          <mxGeometry width="760.0000000000001" height="30" relative="1" as="geometry"/>
        </mxCell>
        <mxCell id="0B9Z9vkxKo9aDNmEN0Qr-2" value="虚拟机展示组件" style="html=1;shadow=0;dashed=0;shape=mxgraph.bootstrap.rrect;align=center;rSize=5;strokeColor=none;fillColor=#499948;fontColor=#ffffff;fontStyle=1;whiteSpace=wrap;fontSize=16;fontFamily=楷体;flipH=1;flipV=1;" parent="0B9Z9vkxKo9aDNmEN0Qr-0" vertex="1">
          <mxGeometry x="40" y="44.49999999999998" width="140" height="36" as="geometry"/>
        </mxCell>
        <mxCell id="0B9Z9vkxKo9aDNmEN0Qr-3" value="云盘展示组件" style="html=1;shadow=0;dashed=0;shape=mxgraph.bootstrap.rrect;align=center;rSize=5;strokeColor=none;fillColor=#499948;fontColor=#ffffff;fontStyle=1;whiteSpace=wrap;fontSize=16;fontFamily=楷体;flipH=1;flipV=1;" parent="0B9Z9vkxKo9aDNmEN0Qr-0" vertex="1">
          <mxGeometry x="187" y="44.5" width="119" height="36" as="geometry"/>
        </mxCell>
        <mxCell id="0B9Z9vkxKo9aDNmEN0Qr-4" value="SDN展示组件" style="html=1;shadow=0;dashed=0;shape=mxgraph.bootstrap.rrect;align=center;rSize=5;strokeColor=none;fillColor=#499948;fontColor=#ffffff;fontStyle=1;whiteSpace=wrap;fontSize=16;fontFamily=楷体;flipH=1;flipV=1;" parent="0B9Z9vkxKo9aDNmEN0Qr-0" vertex="1">
          <mxGeometry x="324" y="44.5" width="117" height="36" as="geometry"/>
        </mxCell>
        <mxCell id="0B9Z9vkxKo9aDNmEN0Qr-5" value="数据查询展示组件" style="html=1;shadow=0;dashed=0;shape=mxgraph.bootstrap.rrect;align=center;rSize=5;strokeColor=none;fillColor=#499948;fontColor=#ffffff;fontStyle=1;whiteSpace=wrap;fontSize=16;fontFamily=楷体;flipH=1;flipV=1;" parent="0B9Z9vkxKo9aDNmEN0Qr-0" vertex="1">
          <mxGeometry x="584" y="44.5" width="140" height="36" as="geometry"/>
        </mxCell>
        <mxCell id="0B9Z9vkxKo9aDNmEN0Qr-26" value="拓扑展示组件" style="html=1;shadow=0;dashed=0;shape=mxgraph.bootstrap.rrect;align=center;rSize=5;strokeColor=none;fillColor=#499948;fontColor=#ffffff;fontStyle=1;whiteSpace=wrap;fontSize=16;fontFamily=楷体;flipH=1;flipV=1;" parent="0B9Z9vkxKo9aDNmEN0Qr-0" vertex="1">
          <mxGeometry x="460" y="44.5" width="117" height="36" as="geometry"/>
        </mxCell>
        <mxCell id="0B9Z9vkxKo9aDNmEN0Qr-6" value="" style="html=1;shadow=0;dashed=0;shape=mxgraph.bootstrap.rrect;align=center;rSize=5;strokeColor=#000099;fontColor=#f0f0f0;spacingTop=30;whiteSpace=wrap;fillColor=none;strokeWidth=3;" parent="TYmeZ0yaHEhEsfv02S1p-1" vertex="1">
          <mxGeometry x="33" y="430.5" width="760" height="90" as="geometry"/>
        </mxCell>
        <mxCell id="0B9Z9vkxKo9aDNmEN0Qr-7" value="核心业务层" style="html=1;shadow=0;dashed=0;shape=mxgraph.bootstrap.topButton;rSize=5;strokeColor=none;fillColor=none;fontColor=#000000;fontSize=18;fontStyle=1;align=left;spacingLeft=10;whiteSpace=wrap;resizeWidth=1;" parent="0B9Z9vkxKo9aDNmEN0Qr-6" vertex="1">
          <mxGeometry width="760.0000000000001" height="30" relative="1" as="geometry"/>
        </mxCell>
        <mxCell id="0B9Z9vkxKo9aDNmEN0Qr-8" value="OpenStack组件" style="html=1;shadow=0;dashed=0;shape=mxgraph.bootstrap.rrect;align=center;rSize=5;strokeColor=none;fillColor=#0D5B9D;fontColor=#ffffff;fontStyle=1;whiteSpace=wrap;fontSize=16;fontFamily=楷体;" parent="0B9Z9vkxKo9aDNmEN0Qr-6" vertex="1">
          <mxGeometry x="38" y="40" width="132" height="40" as="geometry"/>
        </mxCell>
        <mxCell id="0B9Z9vkxKo9aDNmEN0Qr-9" value="SDN组件" style="html=1;shadow=0;dashed=0;shape=mxgraph.bootstrap.rrect;align=center;rSize=5;strokeColor=none;fillColor=#0D5B9D;fontColor=#ffffff;fontStyle=1;whiteSpace=wrap;fontSize=16;fontFamily=楷体;" parent="0B9Z9vkxKo9aDNmEN0Qr-6" vertex="1">
          <mxGeometry x="181" y="40" width="116" height="40" as="geometry"/>
        </mxCell>
        <mxCell id="0B9Z9vkxKo9aDNmEN0Qr-10" value="Agent组件" style="html=1;shadow=0;dashed=0;shape=mxgraph.bootstrap.rrect;align=center;rSize=5;strokeColor=none;fillColor=#0D5B9D;fontColor=#ffffff;fontStyle=1;whiteSpace=wrap;fontSize=16;fontFamily=楷体;" parent="0B9Z9vkxKo9aDNmEN0Qr-6" vertex="1">
          <mxGeometry x="319" y="40" width="109" height="40" as="geometry"/>
        </mxCell>
        <mxCell id="0B9Z9vkxKo9aDNmEN0Qr-11" value="数据查询组件" style="html=1;shadow=0;dashed=0;shape=mxgraph.bootstrap.rrect;align=center;rSize=5;strokeColor=none;fillColor=#0D5B9D;fontColor=#ffffff;fontStyle=1;whiteSpace=wrap;fontSize=16;fontFamily=楷体;" parent="0B9Z9vkxKo9aDNmEN0Qr-6" vertex="1">
          <mxGeometry x="567" y="40" width="153" height="40" as="geometry"/>
        </mxCell>
        <mxCell id="0B9Z9vkxKo9aDNmEN0Qr-27" value="租户管理组件" style="html=1;shadow=0;dashed=0;shape=mxgraph.bootstrap.rrect;align=center;rSize=5;strokeColor=none;fillColor=#0D5B9D;fontColor=#ffffff;fontStyle=1;whiteSpace=wrap;fontSize=16;fontFamily=楷体;" parent="0B9Z9vkxKo9aDNmEN0Qr-6" vertex="1">
          <mxGeometry x="454" y="40" width="109" height="40" as="geometry"/>
        </mxCell>
        <mxCell id="0B9Z9vkxKo9aDNmEN0Qr-12" value="" style="html=1;shadow=0;dashed=0;shape=mxgraph.bootstrap.rrect;align=center;rSize=5;strokeColor=#7F00FF;fontColor=#f0f0f0;spacingTop=30;whiteSpace=wrap;fillColor=none;strokeWidth=3;" parent="TYmeZ0yaHEhEsfv02S1p-1" vertex="1">
          <mxGeometry x="33" y="540" width="760" height="90" as="geometry"/>
        </mxCell>
        <mxCell id="0B9Z9vkxKo9aDNmEN0Qr-13" value="数据持久层" style="html=1;shadow=0;dashed=0;shape=mxgraph.bootstrap.topButton;rSize=5;strokeColor=none;fillColor=none;fontColor=#000000;fontSize=18;fontStyle=1;align=left;spacingLeft=10;whiteSpace=wrap;resizeWidth=1;" parent="0B9Z9vkxKo9aDNmEN0Qr-12" vertex="1">
          <mxGeometry width="760.0000000000001" height="30" relative="1" as="geometry"/>
        </mxCell>
        <mxCell id="0B9Z9vkxKo9aDNmEN0Qr-14" value="虚机设备库组件" style="html=1;shadow=0;dashed=0;shape=mxgraph.bootstrap.rrect;align=center;rSize=5;strokeColor=none;fillColor=#7F00FF;fontColor=#ffffff;fontStyle=1;whiteSpace=wrap;fontSize=16;fontFamily=楷体;" parent="0B9Z9vkxKo9aDNmEN0Qr-12" vertex="1">
          <mxGeometry x="40" y="40" width="120" height="40" as="geometry"/>
        </mxCell>
        <mxCell id="0B9Z9vkxKo9aDNmEN0Qr-15" value="资产库组件" style="html=1;shadow=0;dashed=0;shape=mxgraph.bootstrap.rrect;align=center;rSize=5;strokeColor=none;fillColor=#7F00FF;fontColor=#ffffff;fontStyle=1;whiteSpace=wrap;fontSize=16;fontFamily=楷体;" parent="0B9Z9vkxKo9aDNmEN0Qr-12" vertex="1">
          <mxGeometry x="186" y="40" width="110" height="40" as="geometry"/>
        </mxCell>
        <mxCell id="0B9Z9vkxKo9aDNmEN0Qr-16" value="租户库组件" style="html=1;shadow=0;dashed=0;shape=mxgraph.bootstrap.rrect;align=center;rSize=5;strokeColor=none;fillColor=#7F00FF;fontColor=#ffffff;fontStyle=1;whiteSpace=wrap;fontSize=16;fontFamily=楷体;" parent="0B9Z9vkxKo9aDNmEN0Qr-12" vertex="1">
          <mxGeometry x="469" y="40" width="110" height="40" as="geometry"/>
        </mxCell>
        <mxCell id="0B9Z9vkxKo9aDNmEN0Qr-17" value="系统字典组件" style="html=1;shadow=0;dashed=0;shape=mxgraph.bootstrap.rrect;align=center;rSize=5;strokeColor=none;fillColor=#7F00FF;fontColor=#ffffff;fontStyle=1;whiteSpace=wrap;fontSize=16;fontFamily=楷体;" parent="0B9Z9vkxKo9aDNmEN0Qr-12" vertex="1">
          <mxGeometry x="610" y="40" width="110" height="40" as="geometry"/>
        </mxCell>
        <mxCell id="0B9Z9vkxKo9aDNmEN0Qr-18" value="网络配置库组件" style="html=1;shadow=0;dashed=0;shape=mxgraph.bootstrap.rrect;align=center;rSize=5;strokeColor=none;fillColor=#7F00FF;fontColor=#ffffff;fontStyle=1;whiteSpace=wrap;fontSize=16;fontFamily=楷体;" parent="0B9Z9vkxKo9aDNmEN0Qr-12" vertex="1">
          <mxGeometry x="321" y="40" width="123" height="40" as="geometry"/>
        </mxCell>
        <mxCell id="0B9Z9vkxKo9aDNmEN0Qr-19" value="" style="html=1;shadow=0;dashed=0;shape=mxgraph.bootstrap.rrect;align=center;rSize=5;strokeColor=#8C008C;fontColor=#f0f0f0;spacingTop=30;whiteSpace=wrap;fillColor=none;strokeWidth=3;" parent="TYmeZ0yaHEhEsfv02S1p-1" vertex="1">
          <mxGeometry x="33" y="650" width="760" height="90" as="geometry"/>
        </mxCell>
        <mxCell id="0B9Z9vkxKo9aDNmEN0Qr-20" value="基础设施层" style="html=1;shadow=0;dashed=0;shape=mxgraph.bootstrap.topButton;rSize=5;strokeColor=none;fillColor=none;fontColor=#000000;fontSize=18;fontStyle=1;align=left;spacingLeft=10;whiteSpace=wrap;resizeWidth=1;" parent="0B9Z9vkxKo9aDNmEN0Qr-19" vertex="1">
          <mxGeometry width="760.0000000000001" height="30" relative="1" as="geometry"/>
        </mxCell>
        <mxCell id="0B9Z9vkxKo9aDNmEN0Qr-21" value="发电仿真组件" style="html=1;shadow=0;dashed=0;shape=mxgraph.bootstrap.rrect;align=center;rSize=5;strokeColor=none;fillColor=#8C008C;fontColor=#ffffff;fontStyle=1;whiteSpace=wrap;fontSize=16;fontFamily=楷体;" parent="0B9Z9vkxKo9aDNmEN0Qr-19" vertex="1">
          <mxGeometry x="40" y="40" width="120" height="40" as="geometry"/>
        </mxCell>
        <mxCell id="0B9Z9vkxKo9aDNmEN0Qr-22" value="输电仿真组件" style="html=1;shadow=0;dashed=0;shape=mxgraph.bootstrap.rrect;align=center;rSize=5;strokeColor=none;fillColor=#8C008C;fontColor=#ffffff;fontStyle=1;whiteSpace=wrap;fontSize=16;fontFamily=楷体;" parent="0B9Z9vkxKo9aDNmEN0Qr-19" vertex="1">
          <mxGeometry x="180" y="40" width="120" height="40" as="geometry"/>
        </mxCell>
        <mxCell id="0B9Z9vkxKo9aDNmEN0Qr-23" value="变电仿真组件" style="html=1;shadow=0;dashed=0;shape=mxgraph.bootstrap.rrect;align=center;rSize=5;strokeColor=none;fillColor=#8C008C;fontColor=#ffffff;fontStyle=1;whiteSpace=wrap;fontSize=16;fontFamily=楷体;" parent="0B9Z9vkxKo9aDNmEN0Qr-19" vertex="1">
          <mxGeometry x="320" y="40" width="120" height="40" as="geometry"/>
        </mxCell>
        <mxCell id="0B9Z9vkxKo9aDNmEN0Qr-24" value="配电仿真组件" style="html=1;shadow=0;dashed=0;shape=mxgraph.bootstrap.rrect;align=center;rSize=5;strokeColor=none;fillColor=#8C008C;fontColor=#ffffff;fontStyle=1;whiteSpace=wrap;fontSize=16;fontFamily=楷体;" parent="0B9Z9vkxKo9aDNmEN0Qr-19" vertex="1">
          <mxGeometry x="460" y="40" width="120" height="40" as="geometry"/>
        </mxCell>
        <mxCell id="0B9Z9vkxKo9aDNmEN0Qr-25" value="调度仿真组件" style="html=1;shadow=0;dashed=0;shape=mxgraph.bootstrap.rrect;align=center;rSize=5;strokeColor=none;fillColor=#8C008C;fontColor=#ffffff;fontStyle=1;whiteSpace=wrap;fontSize=16;fontFamily=楷体;" parent="0B9Z9vkxKo9aDNmEN0Qr-19" vertex="1">
          <mxGeometry x="600" y="40" width="120" height="40" as="geometry"/>
        </mxCell>
        <mxCell id="N0_U6WzMiBRFH9KctaEh-0" value="" style="endArrow=classic;html=1;fontColor=#000000;strokeColor=#FF0000;strokeWidth=3;dashed=1;dashPattern=1 1;entryX=0.5;entryY=0.975;entryDx=0;entryDy=0;entryPerimeter=0;" edge="1" parent="TYmeZ0yaHEhEsfv02S1p-1" source="0B9Z9vkxKo9aDNmEN0Qr-20" target="0B9Z9vkxKo9aDNmEN0Qr-15">
          <mxGeometry width="50" height="50" relative="1" as="geometry">
            <mxPoint x="541.4973145531806" y="580" as="sourcePoint"/>
            <mxPoint x="487.6254826254826" y="510.5" as="targetPoint"/>
          </mxGeometry>
        </mxCell>
        <mxCell id="N0_U6WzMiBRFH9KctaEh-1" value="" style="endArrow=classic;html=1;fontColor=#000000;strokeColor=#FF0000;strokeWidth=3;dashed=1;dashPattern=1 1;" edge="1" parent="TYmeZ0yaHEhEsfv02S1p-1" source="0B9Z9vkxKo9aDNmEN0Qr-14" target="0B9Z9vkxKo9aDNmEN0Qr-8">
          <mxGeometry width="50" height="50" relative="1" as="geometry">
            <mxPoint x="551.4973145531806" y="590" as="sourcePoint"/>
            <mxPoint x="497.6254826254826" y="520.5" as="targetPoint"/>
          </mxGeometry>
        </mxCell>
        <mxCell id="N0_U6WzMiBRFH9KctaEh-2" value="" style="endArrow=classic;html=1;fontColor=#000000;strokeColor=#FF0000;strokeWidth=3;dashed=1;dashPattern=1 1;entryX=0.397;entryY=0.988;entryDx=0;entryDy=0;entryPerimeter=0;" edge="1" parent="TYmeZ0yaHEhEsfv02S1p-1" source="0B9Z9vkxKo9aDNmEN0Qr-14" target="0B9Z9vkxKo9aDNmEN0Qr-9">
          <mxGeometry width="50" height="50" relative="1" as="geometry">
            <mxPoint x="561.4973145531806" y="600" as="sourcePoint"/>
            <mxPoint x="507.6254826254826" y="530.5" as="targetPoint"/>
          </mxGeometry>
        </mxCell>
        <mxCell id="N0_U6WzMiBRFH9KctaEh-3" value="" style="endArrow=classic;html=1;fontColor=#000000;strokeColor=#FF0000;strokeWidth=3;dashed=1;dashPattern=1 1;entryX=0.503;entryY=1.013;entryDx=0;entryDy=0;entryPerimeter=0;" edge="1" parent="TYmeZ0yaHEhEsfv02S1p-1" source="0B9Z9vkxKo9aDNmEN0Qr-15" target="0B9Z9vkxKo9aDNmEN0Qr-10">
          <mxGeometry width="50" height="50" relative="1" as="geometry">
            <mxPoint x="571.4973145531806" y="610" as="sourcePoint"/>
            <mxPoint x="517.6254826254826" y="540.5" as="targetPoint"/>
          </mxGeometry>
        </mxCell>
        <mxCell id="N0_U6WzMiBRFH9KctaEh-4" value="" style="endArrow=classic;html=1;fontColor=#000000;strokeColor=#FF0000;strokeWidth=3;dashed=1;dashPattern=1 1;" edge="1" parent="TYmeZ0yaHEhEsfv02S1p-1" source="0B9Z9vkxKo9aDNmEN0Qr-18" target="0B9Z9vkxKo9aDNmEN0Qr-9">
          <mxGeometry width="50" height="50" relative="1" as="geometry">
            <mxPoint x="581.4973145531806" y="620" as="sourcePoint"/>
            <mxPoint x="527.6254826254826" y="550.5" as="targetPoint"/>
          </mxGeometry>
        </mxCell>
        <mxCell id="N0_U6WzMiBRFH9KctaEh-5" value="" style="endArrow=classic;html=1;fontColor=#000000;strokeColor=#FF0000;strokeWidth=3;dashed=1;dashPattern=1 1;entryX=0.527;entryY=1.013;entryDx=0;entryDy=0;entryPerimeter=0;exitX=0.429;exitY=-0.005;exitDx=0;exitDy=0;exitPerimeter=0;" edge="1" parent="TYmeZ0yaHEhEsfv02S1p-1" source="0B9Z9vkxKo9aDNmEN0Qr-16" target="0B9Z9vkxKo9aDNmEN0Qr-27">
          <mxGeometry width="50" height="50" relative="1" as="geometry">
            <mxPoint x="591.4973145531806" y="630" as="sourcePoint"/>
            <mxPoint x="537.6254826254826" y="560.5" as="targetPoint"/>
          </mxGeometry>
        </mxCell>
        <mxCell id="N0_U6WzMiBRFH9KctaEh-6" value="" style="endArrow=classic;html=1;fontColor=#000000;strokeColor=#FF0000;strokeWidth=3;dashed=1;dashPattern=1 1;exitX=0.769;exitY=-0.113;exitDx=0;exitDy=0;exitPerimeter=0;" edge="1" parent="TYmeZ0yaHEhEsfv02S1p-1" source="0B9Z9vkxKo9aDNmEN0Qr-13" target="0B9Z9vkxKo9aDNmEN0Qr-11">
          <mxGeometry width="50" height="50" relative="1" as="geometry">
            <mxPoint x="601.4973145531806" y="640" as="sourcePoint"/>
            <mxPoint x="547.6254826254826" y="570.5" as="targetPoint"/>
          </mxGeometry>
        </mxCell>
        <mxCell id="N0_U6WzMiBRFH9KctaEh-7" value="" style="endArrow=classic;html=1;fontColor=#000000;strokeColor=#FF0000;strokeWidth=3;dashed=1;dashPattern=1 1;exitX=0.525;exitY=0.013;exitDx=0;exitDy=0;exitPerimeter=0;" edge="1" parent="TYmeZ0yaHEhEsfv02S1p-1" source="0B9Z9vkxKo9aDNmEN0Qr-11" target="0B9Z9vkxKo9aDNmEN0Qr-5">
          <mxGeometry width="50" height="50" relative="1" as="geometry">
            <mxPoint x="611.4973145531806" y="650" as="sourcePoint"/>
            <mxPoint x="557.6254826254826" y="580.5" as="targetPoint"/>
          </mxGeometry>
        </mxCell>
        <mxCell id="N0_U6WzMiBRFH9KctaEh-8" value="" style="endArrow=classic;html=1;fontColor=#000000;strokeColor=#FF0000;strokeWidth=3;dashed=1;dashPattern=1 1;" edge="1" parent="TYmeZ0yaHEhEsfv02S1p-1" source="0B9Z9vkxKo9aDNmEN0Qr-11" target="0B9Z9vkxKo9aDNmEN0Qr-26">
          <mxGeometry width="50" height="50" relative="1" as="geometry">
            <mxPoint x="621.4973145531806" y="660" as="sourcePoint"/>
            <mxPoint x="567.6254826254826" y="590.5" as="targetPoint"/>
          </mxGeometry>
        </mxCell>
        <mxCell id="N0_U6WzMiBRFH9KctaEh-9" value="" style="endArrow=classic;html=1;fontColor=#000000;strokeColor=#FF0000;strokeWidth=3;dashed=1;dashPattern=1 1;" edge="1" parent="TYmeZ0yaHEhEsfv02S1p-1" source="0B9Z9vkxKo9aDNmEN0Qr-11" target="0B9Z9vkxKo9aDNmEN0Qr-4">
          <mxGeometry width="50" height="50" relative="1" as="geometry">
            <mxPoint x="631.4973145531806" y="670" as="sourcePoint"/>
            <mxPoint x="577.6254826254826" y="600.5" as="targetPoint"/>
          </mxGeometry>
        </mxCell>
        <mxCell id="N0_U6WzMiBRFH9KctaEh-10" value="" style="endArrow=classic;html=1;fontColor=#000000;strokeColor=#FF0000;strokeWidth=3;dashed=1;dashPattern=1 1;exitX=0.483;exitY=-0.012;exitDx=0;exitDy=0;exitPerimeter=0;" edge="1" parent="TYmeZ0yaHEhEsfv02S1p-1" source="0B9Z9vkxKo9aDNmEN0Qr-9" target="0B9Z9vkxKo9aDNmEN0Qr-4">
          <mxGeometry width="50" height="50" relative="1" as="geometry">
            <mxPoint x="641.4973145531806" y="680" as="sourcePoint"/>
            <mxPoint x="587.6254826254826" y="610.5" as="targetPoint"/>
          </mxGeometry>
        </mxCell>
        <mxCell id="N0_U6WzMiBRFH9KctaEh-11" value="" style="endArrow=classic;html=1;fontColor=#000000;strokeColor=#FF0000;strokeWidth=3;dashed=1;dashPattern=1 1;entryX=0.486;entryY=-0.003;entryDx=0;entryDy=0;entryPerimeter=0;exitX=0.829;exitY=0.032;exitDx=0;exitDy=0;exitPerimeter=0;" edge="1" parent="TYmeZ0yaHEhEsfv02S1p-1" source="0B9Z9vkxKo9aDNmEN0Qr-8" target="0B9Z9vkxKo9aDNmEN0Qr-3">
          <mxGeometry width="50" height="50" relative="1" as="geometry">
            <mxPoint x="651.4973145531806" y="690" as="sourcePoint"/>
            <mxPoint x="597.6254826254826" y="620.5" as="targetPoint"/>
          </mxGeometry>
        </mxCell>
        <mxCell id="N0_U6WzMiBRFH9KctaEh-12" value="" style="endArrow=classic;html=1;fontColor=#000000;strokeColor=#FF0000;strokeWidth=3;dashed=1;dashPattern=1 1;" edge="1" parent="TYmeZ0yaHEhEsfv02S1p-1" source="0B9Z9vkxKo9aDNmEN0Qr-8" target="0B9Z9vkxKo9aDNmEN0Qr-2">
          <mxGeometry width="50" height="50" relative="1" as="geometry">
            <mxPoint x="661.4973145531806" y="700" as="sourcePoint"/>
            <mxPoint x="607.6254826254826" y="630.5" as="targetPoint"/>
          </mxGeometry>
        </mxCell>
      </root>
    </mxGraphModel>
  </diagram>
</mxfile>
